<?xml version="1.0" encoding="UTF-8" standalone="no"?>
<svg
   xmlns:dc="http://purl.org/dc/elements/1.1/"
   xmlns:cc="http://creativecommons.org/ns#"
   xmlns:rdf="http://www.w3.org/1999/02/22-rdf-syntax-ns#"
   xmlns:svg="http://www.w3.org/2000/svg"
   xmlns="http://www.w3.org/2000/svg"
   xmlns:sodipodi="http://sodipodi.sourceforge.net/DTD/sodipodi-0.dtd"
   xmlns:inkscape="http://www.inkscape.org/namespaces/inkscape"
   version="1.1"
   id="svg2"
   xml:space="preserve"
   width="263.24994"
   height="235.16995"
   viewBox="0 0 263.24994 235.16995"
   sodipodi:docname="Sudoku.svg"
   inkscape:version="1.0.2 (e86c870879, 2021-01-15)"><metadata
     id="metadata8"><rdf:RDF><cc:Work
         rdf:about=""><dc:format>image/svg+xml</dc:format><dc:type
           rdf:resource="http://purl.org/dc/dcmitype/StillImage" /><dc:title></dc:title></cc:Work></rdf:RDF></metadata><defs
     id="defs6"><clipPath
       clipPathUnits="userSpaceOnUse"
       id="clipPath18"><path
         d="M 120.83333,120.83333 H 2431.5831 V 3181.1141 H 120.83333 Z"
         clip-rule="evenodd"
         id="path16" /></clipPath></defs><sodipodi:namedview
     pagecolor="#ffffff"
     bordercolor="#666666"
     borderopacity="1"
     objecttolerance="10"
     gridtolerance="10"
     guidetolerance="10"
     inkscape:pageopacity="0"
     inkscape:pageshadow="2"
     inkscape:window-width="1438"
     inkscape:window-height="862"
     id="namedview4"
     showgrid="false"
     inkscape:zoom="1.3210842"
     inkscape:cx="41.423323"
     inkscape:cy="28.703265"
     inkscape:window-x="0"
     inkscape:window-y="18"
     inkscape:window-maximized="0"
     inkscape:current-layer="svg2" /><rect
     style="opacity:0.9998;fill:#ffffff;stroke:none;stroke-width:0.756"
     id="rect1823"
     width="263.24994"
     height="235.16995"
     x="-4.3741647e-06"
     y="4.533334e-06"
     inkscape:label="bg" /><g
     id="g10"
     inkscape:groupmode="layer"
     inkscape:label="Sudoku"
     transform="matrix(0.31999998,0,0,0.31999998,-277.34662,-132.26664)"><g
       id="g12"><g
         id="g14"
         clip-path="url(#clipPath18)"><g
           id="g20"
           transform="matrix(3.6562495,0,0,3.6562495,120.83333,120.83333)"><path
             d="m 401,278 h 28 v 3 h -28 z"
             style="fill:#000000;fill-opacity:1;fill-rule:nonzero;stroke:none"
             id="path24" /><path
             d="m 426,257 h 3 v 24 h -3 z"
             style="fill:#000000;fill-opacity:1;fill-rule:nonzero;stroke:none"
             id="path26" /><path
             d="m 377,278 h 25 v 3 h -25 z"
             style="fill:#000000;fill-opacity:1;fill-rule:nonzero;stroke:none"
             id="path28" /><path
             d="m 401,257 h 1 v 21 h -1 z"
             style="fill:#000000;fill-opacity:1;fill-rule:nonzero;stroke:none"
             id="path30" /><path
             d="m 351,278 h 27 v 3 h -27 z"
             style="fill:#000000;fill-opacity:1;fill-rule:nonzero;stroke:none"
             id="path32" /><path
             d="m 377,257 h 1 v 21 h -1 z"
             style="fill:#000000;fill-opacity:1;fill-rule:nonzero;stroke:none"
             id="path34" /><path
             d="m 327,278 h 27 v 3 h -27 z"
             style="fill:#000000;fill-opacity:1;fill-rule:nonzero;stroke:none"
             id="path36" /><path
             d="m 351,257 h 3 v 21 h -3 z"
             style="fill:#000000;fill-opacity:1;fill-rule:nonzero;stroke:none"
             id="path38" /><path
             d="m 303,278 h 25 v 3 h -25 z"
             style="fill:#000000;fill-opacity:1;fill-rule:nonzero;stroke:none"
             id="path40" /><path
             d="m 327,257 h 1 v 21 h -1 z"
             style="fill:#000000;fill-opacity:1;fill-rule:nonzero;stroke:none"
             id="path42" /><path
             d="m 277,278 h 27 v 3 h -27 z"
             style="fill:#000000;fill-opacity:1;fill-rule:nonzero;stroke:none"
             id="path44" /><path
             d="m 303,257 h 1 v 21 h -1 z"
             style="fill:#000000;fill-opacity:1;fill-rule:nonzero;stroke:none"
             id="path46" /><path
             d="m 253,278 h 27 v 3 h -27 z"
             style="fill:#000000;fill-opacity:1;fill-rule:nonzero;stroke:none"
             id="path48" /><path
             d="m 277,257 h 3 v 21 h -3 z"
             style="fill:#000000;fill-opacity:1;fill-rule:nonzero;stroke:none"
             id="path50" /><path
             d="m 230,278 h 24 v 3 h -24 z"
             style="fill:#000000;fill-opacity:1;fill-rule:nonzero;stroke:none"
             id="path52" /><path
             d="m 253,257 h 1 v 21 h -1 z"
             style="fill:#000000;fill-opacity:1;fill-rule:nonzero;stroke:none"
             id="path54" /><path
             d="m 204,278 h 27 v 3 h -27 z"
             style="fill:#000000;fill-opacity:1;fill-rule:nonzero;stroke:none"
             id="path56" /><path
             d="m 204,257 h 3 v 24 h -3 z"
             style="fill:#000000;fill-opacity:1;fill-rule:nonzero;stroke:none"
             id="path58" /><path
             d="m 230,257 h 1 v 21 h -1 z"
             style="fill:#000000;fill-opacity:1;fill-rule:nonzero;stroke:none"
             id="path60" /><path
             d="m 401,257 h 25 v 1 h -25 z"
             style="fill:#000000;fill-opacity:1;fill-rule:nonzero;stroke:none"
             id="path62" /><path
             d="m 426,235 h 3 v 23 h -3 z"
             style="fill:#000000;fill-opacity:1;fill-rule:nonzero;stroke:none"
             id="path64" /><path
             d="m 377,257 h 25 v 1 h -25 z"
             style="fill:#000000;fill-opacity:1;fill-rule:nonzero;stroke:none"
             id="path66" /><path
             d="m 401,235 h 1 v 23 h -1 z"
             style="fill:#000000;fill-opacity:1;fill-rule:nonzero;stroke:none"
             id="path68" /><path
             d="m 354,257 h 24 v 1 h -24 z"
             style="fill:#000000;fill-opacity:1;fill-rule:nonzero;stroke:none"
             id="path70" /><path
             d="m 377,235 h 1 v 23 h -1 z"
             style="fill:#000000;fill-opacity:1;fill-rule:nonzero;stroke:none"
             id="path72" /><path
             d="m 327,257 h 24 v 1 h -24 z"
             style="fill:#000000;fill-opacity:1;fill-rule:nonzero;stroke:none"
             id="path74" /><path
             d="m 351,235 h 3 v 23 h -3 z"
             style="fill:#000000;fill-opacity:1;fill-rule:nonzero;stroke:none"
             id="path76" /><path
             d="m 303,257 h 25 v 1 h -25 z"
             style="fill:#000000;fill-opacity:1;fill-rule:nonzero;stroke:none"
             id="path78" /><path
             d="m 327,235 h 1 v 23 h -1 z"
             style="fill:#000000;fill-opacity:1;fill-rule:nonzero;stroke:none"
             id="path80" /><path
             d="m 280,257 h 24 v 1 h -24 z"
             style="fill:#000000;fill-opacity:1;fill-rule:nonzero;stroke:none"
             id="path82" /><path
             d="m 303,235 h 1 v 23 h -1 z"
             style="fill:#000000;fill-opacity:1;fill-rule:nonzero;stroke:none"
             id="path84" /><path
             d="m 253,257 h 24 v 1 h -24 z"
             style="fill:#000000;fill-opacity:1;fill-rule:nonzero;stroke:none"
             id="path86" /><path
             d="m 277,235 h 3 v 23 h -3 z"
             style="fill:#000000;fill-opacity:1;fill-rule:nonzero;stroke:none"
             id="path88" /><path
             d="m 230,257 h 24 v 1 h -24 z"
             style="fill:#000000;fill-opacity:1;fill-rule:nonzero;stroke:none"
             id="path90" /><path
             d="m 253,235 h 1 v 23 h -1 z"
             style="fill:#000000;fill-opacity:1;fill-rule:nonzero;stroke:none"
             id="path92" /><path
             d="m 207,257 h 24 v 1 h -24 z"
             style="fill:#000000;fill-opacity:1;fill-rule:nonzero;stroke:none"
             id="path94" /><path
             d="m 204,235 h 3 v 23 h -3 z"
             style="fill:#000000;fill-opacity:1;fill-rule:nonzero;stroke:none"
             id="path96" /><path
             d="m 230,235 h 1 v 23 h -1 z"
             style="fill:#000000;fill-opacity:1;fill-rule:nonzero;stroke:none"
             id="path98" /><path
             d="m 401,235 h 25 v 1 h -25 z"
             style="fill:#000000;fill-opacity:1;fill-rule:nonzero;stroke:none"
             id="path100" /><path
             d="m 426,212 h 3 v 24 h -3 z"
             style="fill:#000000;fill-opacity:1;fill-rule:nonzero;stroke:none"
             id="path102" /><path
             d="m 377,235 h 25 v 1 h -25 z"
             style="fill:#000000;fill-opacity:1;fill-rule:nonzero;stroke:none"
             id="path104" /><path
             d="m 401,215 h 1 v 21 h -1 z"
             style="fill:#000000;fill-opacity:1;fill-rule:nonzero;stroke:none"
             id="path106" /><path
             d="m 354,235 h 24 v 1 h -24 z"
             style="fill:#000000;fill-opacity:1;fill-rule:nonzero;stroke:none"
             id="path108" /><path
             d="m 377,215 h 1 v 21 h -1 z"
             style="fill:#000000;fill-opacity:1;fill-rule:nonzero;stroke:none"
             id="path110" /><path
             d="m 327,235 h 24 v 1 h -24 z"
             style="fill:#000000;fill-opacity:1;fill-rule:nonzero;stroke:none"
             id="path112" /><path
             d="m 351,215 h 3 v 21 h -3 z"
             style="fill:#000000;fill-opacity:1;fill-rule:nonzero;stroke:none"
             id="path114" /><path
             d="m 303,235 h 25 v 1 h -25 z"
             style="fill:#000000;fill-opacity:1;fill-rule:nonzero;stroke:none"
             id="path116" /><path
             d="m 327,215 h 1 v 21 h -1 z"
             style="fill:#000000;fill-opacity:1;fill-rule:nonzero;stroke:none"
             id="path118" /><path
             d="m 280,235 h 24 v 1 h -24 z"
             style="fill:#000000;fill-opacity:1;fill-rule:nonzero;stroke:none"
             id="path120" /><path
             d="m 303,215 h 1 v 21 h -1 z"
             style="fill:#000000;fill-opacity:1;fill-rule:nonzero;stroke:none"
             id="path122" /><path
             d="m 253,235 h 24 v 1 h -24 z"
             style="fill:#000000;fill-opacity:1;fill-rule:nonzero;stroke:none"
             id="path124" /><path
             d="m 277,215 h 3 v 21 h -3 z"
             style="fill:#000000;fill-opacity:1;fill-rule:nonzero;stroke:none"
             id="path126" /><path
             d="m 230,235 h 24 v 1 h -24 z"
             style="fill:#000000;fill-opacity:1;fill-rule:nonzero;stroke:none"
             id="path128" /><path
             d="m 253,215 h 1 v 21 h -1 z"
             style="fill:#000000;fill-opacity:1;fill-rule:nonzero;stroke:none"
             id="path130" /><path
             d="m 207,235 h 24 v 1 h -24 z"
             style="fill:#000000;fill-opacity:1;fill-rule:nonzero;stroke:none"
             id="path132" /><path
             d="m 204,212 h 3 v 24 h -3 z"
             style="fill:#000000;fill-opacity:1;fill-rule:nonzero;stroke:none"
             id="path134" /><path
             d="m 230,215 h 1 v 21 h -1 z"
             style="fill:#000000;fill-opacity:1;fill-rule:nonzero;stroke:none"
             id="path136" /><path
             d="m 401,212 h 28 v 3 h -28 z"
             style="fill:#000000;fill-opacity:1;fill-rule:nonzero;stroke:none"
             id="path138" /><path
             d="m 426,191 h 3 v 24 h -3 z"
             style="fill:#000000;fill-opacity:1;fill-rule:nonzero;stroke:none"
             id="path140" /><path
             d="m 377,212 h 25 v 3 h -25 z"
             style="fill:#000000;fill-opacity:1;fill-rule:nonzero;stroke:none"
             id="path142" /><path
             d="m 401,191 h 1 v 21 h -1 z"
             style="fill:#000000;fill-opacity:1;fill-rule:nonzero;stroke:none"
             id="path144" /><path
             d="m 351,212 h 27 v 3 h -27 z"
             style="fill:#000000;fill-opacity:1;fill-rule:nonzero;stroke:none"
             id="path146" /><path
             d="m 377,191 h 1 v 21 h -1 z"
             style="fill:#000000;fill-opacity:1;fill-rule:nonzero;stroke:none"
             id="path148" /><path
             d="m 327,212 h 27 v 3 h -27 z"
             style="fill:#000000;fill-opacity:1;fill-rule:nonzero;stroke:none"
             id="path150" /><path
             d="m 351,191 h 3 v 21 h -3 z"
             style="fill:#000000;fill-opacity:1;fill-rule:nonzero;stroke:none"
             id="path152" /><path
             d="m 303,212 h 25 v 3 h -25 z"
             style="fill:#000000;fill-opacity:1;fill-rule:nonzero;stroke:none"
             id="path154" /><path
             d="m 327,191 h 1 v 21 h -1 z"
             style="fill:#000000;fill-opacity:1;fill-rule:nonzero;stroke:none"
             id="path156" /><path
             d="m 277,212 h 27 v 3 h -27 z"
             style="fill:#000000;fill-opacity:1;fill-rule:nonzero;stroke:none"
             id="path158" /><path
             d="m 303,191 h 1 v 21 h -1 z"
             style="fill:#000000;fill-opacity:1;fill-rule:nonzero;stroke:none"
             id="path160" /><path
             d="m 253,212 h 27 v 3 h -27 z"
             style="fill:#000000;fill-opacity:1;fill-rule:nonzero;stroke:none"
             id="path162" /><path
             d="m 277,191 h 3 v 21 h -3 z"
             style="fill:#000000;fill-opacity:1;fill-rule:nonzero;stroke:none"
             id="path164" /><path
             d="m 230,212 h 24 v 3 h -24 z"
             style="fill:#000000;fill-opacity:1;fill-rule:nonzero;stroke:none"
             id="path166" /><path
             d="m 253,191 h 1 v 21 h -1 z"
             style="fill:#000000;fill-opacity:1;fill-rule:nonzero;stroke:none"
             id="path168" /><path
             d="m 204,212 h 27 v 3 h -27 z"
             style="fill:#000000;fill-opacity:1;fill-rule:nonzero;stroke:none"
             id="path170" /><path
             d="m 204,191 h 3 v 24 h -3 z"
             style="fill:#000000;fill-opacity:1;fill-rule:nonzero;stroke:none"
             id="path172" /><path
             d="m 230,191 h 1 v 21 h -1 z"
             style="fill:#000000;fill-opacity:1;fill-rule:nonzero;stroke:none"
             id="path174" /><path
             d="m 401,191 h 25 v 1 h -25 z"
             style="fill:#000000;fill-opacity:1;fill-rule:nonzero;stroke:none"
             id="path176" /><path
             d="m 426,169 h 3 v 23 h -3 z"
             style="fill:#000000;fill-opacity:1;fill-rule:nonzero;stroke:none"
             id="path178" /><path
             d="m 377,191 h 25 v 1 h -25 z"
             style="fill:#000000;fill-opacity:1;fill-rule:nonzero;stroke:none"
             id="path180" /><path
             d="m 401,169 h 1 v 23 h -1 z"
             style="fill:#000000;fill-opacity:1;fill-rule:nonzero;stroke:none"
             id="path182" /><path
             d="m 354,191 h 24 v 1 h -24 z"
             style="fill:#000000;fill-opacity:1;fill-rule:nonzero;stroke:none"
             id="path184" /><path
             d="m 377,169 h 1 v 23 h -1 z"
             style="fill:#000000;fill-opacity:1;fill-rule:nonzero;stroke:none"
             id="path186" /><path
             d="m 327,191 h 24 v 1 h -24 z"
             style="fill:#000000;fill-opacity:1;fill-rule:nonzero;stroke:none"
             id="path188" /><path
             d="m 351,169 h 3 v 23 h -3 z"
             style="fill:#000000;fill-opacity:1;fill-rule:nonzero;stroke:none"
             id="path190" /><path
             d="m 303,191 h 25 v 1 h -25 z"
             style="fill:#000000;fill-opacity:1;fill-rule:nonzero;stroke:none"
             id="path192" /><path
             d="m 327,169 h 1 v 23 h -1 z"
             style="fill:#000000;fill-opacity:1;fill-rule:nonzero;stroke:none"
             id="path194" /><path
             d="m 280,191 h 24 v 1 h -24 z"
             style="fill:#000000;fill-opacity:1;fill-rule:nonzero;stroke:none"
             id="path196" /><path
             d="m 303,169 h 1 v 23 h -1 z"
             style="fill:#000000;fill-opacity:1;fill-rule:nonzero;stroke:none"
             id="path198" /><path
             d="m 253,191 h 24 v 1 h -24 z"
             style="fill:#000000;fill-opacity:1;fill-rule:nonzero;stroke:none"
             id="path200" /><path
             d="m 277,169 h 3 v 23 h -3 z"
             style="fill:#000000;fill-opacity:1;fill-rule:nonzero;stroke:none"
             id="path202" /><path
             d="m 230,191 h 24 v 1 h -24 z"
             style="fill:#000000;fill-opacity:1;fill-rule:nonzero;stroke:none"
             id="path204" /><path
             d="m 253,169 h 1 v 23 h -1 z"
             style="fill:#000000;fill-opacity:1;fill-rule:nonzero;stroke:none"
             id="path206" /><path
             d="m 207,191 h 24 v 1 h -24 z"
             style="fill:#000000;fill-opacity:1;fill-rule:nonzero;stroke:none"
             id="path208" /><path
             d="m 204,169 h 3 v 23 h -3 z"
             style="fill:#000000;fill-opacity:1;fill-rule:nonzero;stroke:none"
             id="path210" /><path
             d="m 230,169 h 1 v 23 h -1 z"
             style="fill:#000000;fill-opacity:1;fill-rule:nonzero;stroke:none"
             id="path212" /><path
             d="m 401,169 h 25 v 1 h -25 z"
             style="fill:#000000;fill-opacity:1;fill-rule:nonzero;stroke:none"
             id="path214" /><path
             d="m 426,146 h 3 v 24 h -3 z"
             style="fill:#000000;fill-opacity:1;fill-rule:nonzero;stroke:none"
             id="path216" /><path
             d="m 377,169 h 25 v 1 h -25 z"
             style="fill:#000000;fill-opacity:1;fill-rule:nonzero;stroke:none"
             id="path218" /><path
             d="m 401,149 h 1 v 21 h -1 z"
             style="fill:#000000;fill-opacity:1;fill-rule:nonzero;stroke:none"
             id="path220" /><path
             d="m 354,169 h 24 v 1 h -24 z"
             style="fill:#000000;fill-opacity:1;fill-rule:nonzero;stroke:none"
             id="path222" /><path
             d="m 377,149 h 1 v 21 h -1 z"
             style="fill:#000000;fill-opacity:1;fill-rule:nonzero;stroke:none"
             id="path224" /><path
             d="m 327,169 h 24 v 1 h -24 z"
             style="fill:#000000;fill-opacity:1;fill-rule:nonzero;stroke:none"
             id="path226" /><path
             d="m 351,149 h 3 v 21 h -3 z"
             style="fill:#000000;fill-opacity:1;fill-rule:nonzero;stroke:none"
             id="path228" /><path
             d="m 303,169 h 25 v 1 h -25 z"
             style="fill:#000000;fill-opacity:1;fill-rule:nonzero;stroke:none"
             id="path230" /><path
             d="m 327,149 h 1 v 21 h -1 z"
             style="fill:#000000;fill-opacity:1;fill-rule:nonzero;stroke:none"
             id="path232" /><path
             d="m 280,169 h 24 v 1 h -24 z"
             style="fill:#000000;fill-opacity:1;fill-rule:nonzero;stroke:none"
             id="path234" /><path
             d="m 303,149 h 1 v 21 h -1 z"
             style="fill:#000000;fill-opacity:1;fill-rule:nonzero;stroke:none"
             id="path236" /><path
             d="m 253,169 h 24 v 1 h -24 z"
             style="fill:#000000;fill-opacity:1;fill-rule:nonzero;stroke:none"
             id="path238" /><path
             d="m 277,149 h 3 v 21 h -3 z"
             style="fill:#000000;fill-opacity:1;fill-rule:nonzero;stroke:none"
             id="path240" /><path
             d="m 230,169 h 24 v 1 h -24 z"
             style="fill:#000000;fill-opacity:1;fill-rule:nonzero;stroke:none"
             id="path242" /><path
             d="m 253,149 h 1 v 21 h -1 z"
             style="fill:#000000;fill-opacity:1;fill-rule:nonzero;stroke:none"
             id="path244" /><path
             d="m 207,169 h 24 v 1 h -24 z"
             style="fill:#000000;fill-opacity:1;fill-rule:nonzero;stroke:none"
             id="path246" /><path
             d="m 204,146 h 3 v 24 h -3 z"
             style="fill:#000000;fill-opacity:1;fill-rule:nonzero;stroke:none"
             id="path248" /><path
             d="m 230,149 h 1 v 21 h -1 z"
             style="fill:#000000;fill-opacity:1;fill-rule:nonzero;stroke:none"
             id="path250" /><path
             d="m 401,146 h 28 v 3 h -28 z"
             style="fill:#000000;fill-opacity:1;fill-rule:nonzero;stroke:none"
             id="path252" /><path
             d="m 426,125 h 3 v 24 h -3 z"
             style="fill:#000000;fill-opacity:1;fill-rule:nonzero;stroke:none"
             id="path254" /><path
             d="m 377,146 h 25 v 3 h -25 z"
             style="fill:#000000;fill-opacity:1;fill-rule:nonzero;stroke:none"
             id="path256" /><path
             d="m 401,125 h 1 v 21 h -1 z"
             style="fill:#000000;fill-opacity:1;fill-rule:nonzero;stroke:none"
             id="path258" /><path
             d="m 351,146 h 27 v 3 h -27 z"
             style="fill:#000000;fill-opacity:1;fill-rule:nonzero;stroke:none"
             id="path260" /><path
             d="m 377,125 h 1 v 21 h -1 z"
             style="fill:#000000;fill-opacity:1;fill-rule:nonzero;stroke:none"
             id="path262" /><path
             d="m 327,146 h 27 v 3 h -27 z"
             style="fill:#000000;fill-opacity:1;fill-rule:nonzero;stroke:none"
             id="path264" /><path
             d="m 351,125 h 3 v 21 h -3 z"
             style="fill:#000000;fill-opacity:1;fill-rule:nonzero;stroke:none"
             id="path266" /><path
             d="m 303,146 h 25 v 3 h -25 z"
             style="fill:#000000;fill-opacity:1;fill-rule:nonzero;stroke:none"
             id="path268" /><path
             d="m 327,125 h 1 v 21 h -1 z"
             style="fill:#000000;fill-opacity:1;fill-rule:nonzero;stroke:none"
             id="path270" /><path
             d="m 277,146 h 27 v 3 h -27 z"
             style="fill:#000000;fill-opacity:1;fill-rule:nonzero;stroke:none"
             id="path272" /><path
             d="m 303,125 h 1 v 21 h -1 z"
             style="fill:#000000;fill-opacity:1;fill-rule:nonzero;stroke:none"
             id="path274" /><path
             d="m 253,146 h 27 v 3 h -27 z"
             style="fill:#000000;fill-opacity:1;fill-rule:nonzero;stroke:none"
             id="path276" /><path
             d="m 277,125 h 3 v 21 h -3 z"
             style="fill:#000000;fill-opacity:1;fill-rule:nonzero;stroke:none"
             id="path278" /><path
             d="m 230,146 h 24 v 3 h -24 z"
             style="fill:#000000;fill-opacity:1;fill-rule:nonzero;stroke:none"
             id="path280" /><path
             d="m 253,125 h 1 v 21 h -1 z"
             style="fill:#000000;fill-opacity:1;fill-rule:nonzero;stroke:none"
             id="path282" /><path
             d="m 204,146 h 27 v 3 h -27 z"
             style="fill:#000000;fill-opacity:1;fill-rule:nonzero;stroke:none"
             id="path284" /><path
             d="m 204,125 h 3 v 24 h -3 z"
             style="fill:#000000;fill-opacity:1;fill-rule:nonzero;stroke:none"
             id="path286" /><path
             d="m 230,125 h 1 v 21 h -1 z"
             style="fill:#000000;fill-opacity:1;fill-rule:nonzero;stroke:none"
             id="path288" /><path
             d="m 401,125 h 25 v 1 h -25 z"
             style="fill:#000000;fill-opacity:1;fill-rule:nonzero;stroke:none"
             id="path290" /><path
             d="m 426,103 h 3 v 23 h -3 z"
             style="fill:#000000;fill-opacity:1;fill-rule:nonzero;stroke:none"
             id="path292" /><path
             d="m 377,125 h 25 v 1 h -25 z"
             style="fill:#000000;fill-opacity:1;fill-rule:nonzero;stroke:none"
             id="path294" /><path
             d="m 401,103 h 1 v 23 h -1 z"
             style="fill:#000000;fill-opacity:1;fill-rule:nonzero;stroke:none"
             id="path296" /><path
             d="m 354,125 h 24 v 1 h -24 z"
             style="fill:#000000;fill-opacity:1;fill-rule:nonzero;stroke:none"
             id="path298" /><path
             d="m 377,103 h 1 v 23 h -1 z"
             style="fill:#000000;fill-opacity:1;fill-rule:nonzero;stroke:none"
             id="path300" /><path
             d="m 327,125 h 24 v 1 h -24 z"
             style="fill:#000000;fill-opacity:1;fill-rule:nonzero;stroke:none"
             id="path302" /><path
             d="m 351,103 h 3 v 23 h -3 z"
             style="fill:#000000;fill-opacity:1;fill-rule:nonzero;stroke:none"
             id="path304" /><path
             d="m 303,125 h 25 v 1 h -25 z"
             style="fill:#000000;fill-opacity:1;fill-rule:nonzero;stroke:none"
             id="path306" /><path
             d="m 327,103 h 1 v 23 h -1 z"
             style="fill:#000000;fill-opacity:1;fill-rule:nonzero;stroke:none"
             id="path308" /><path
             d="m 280,125 h 24 v 1 h -24 z"
             style="fill:#000000;fill-opacity:1;fill-rule:nonzero;stroke:none"
             id="path310" /><path
             d="m 303,103 h 1 v 23 h -1 z"
             style="fill:#000000;fill-opacity:1;fill-rule:nonzero;stroke:none"
             id="path312" /><path
             d="m 253,125 h 24 v 1 h -24 z"
             style="fill:#000000;fill-opacity:1;fill-rule:nonzero;stroke:none"
             id="path314" /><path
             d="m 277,103 h 3 v 23 h -3 z"
             style="fill:#000000;fill-opacity:1;fill-rule:nonzero;stroke:none"
             id="path316" /><path
             d="m 230,125 h 24 v 1 h -24 z"
             style="fill:#000000;fill-opacity:1;fill-rule:nonzero;stroke:none"
             id="path318" /><path
             d="m 253,103 h 1 v 23 h -1 z"
             style="fill:#000000;fill-opacity:1;fill-rule:nonzero;stroke:none"
             id="path320" /><path
             d="m 207,125 h 24 v 1 h -24 z"
             style="fill:#000000;fill-opacity:1;fill-rule:nonzero;stroke:none"
             id="path322" /><path
             d="m 204,103 h 3 v 23 h -3 z"
             style="fill:#000000;fill-opacity:1;fill-rule:nonzero;stroke:none"
             id="path324" /><path
             d="m 230,103 h 1 v 23 h -1 z"
             style="fill:#000000;fill-opacity:1;fill-rule:nonzero;stroke:none"
             id="path326" /><path
             d="m 401,80 h 28 v 3 h -28 z"
             style="fill:#000000;fill-opacity:1;fill-rule:nonzero;stroke:none"
             id="path328" /><path
             d="m 401,103 h 25 v 1 h -25 z"
             style="fill:#000000;fill-opacity:1;fill-rule:nonzero;stroke:none"
             id="path330" /><path
             d="m 426,80 h 3 v 24 h -3 z"
             style="fill:#000000;fill-opacity:1;fill-rule:nonzero;stroke:none"
             id="path332" /><path
             d="m 377,80 h 25 v 3 h -25 z"
             style="fill:#000000;fill-opacity:1;fill-rule:nonzero;stroke:none"
             id="path334" /><path
             d="m 377,103 h 25 v 1 h -25 z"
             style="fill:#000000;fill-opacity:1;fill-rule:nonzero;stroke:none"
             id="path336" /><path
             d="m 401,83 h 1 v 21 h -1 z"
             style="fill:#000000;fill-opacity:1;fill-rule:nonzero;stroke:none"
             id="path338" /><path
             d="m 351,80 h 27 v 3 h -27 z"
             style="fill:#000000;fill-opacity:1;fill-rule:nonzero;stroke:none"
             id="path340" /><path
             d="m 354,103 h 24 v 1 h -24 z"
             style="fill:#000000;fill-opacity:1;fill-rule:nonzero;stroke:none"
             id="path342" /><path
             d="m 377,83 h 1 v 21 h -1 z"
             style="fill:#000000;fill-opacity:1;fill-rule:nonzero;stroke:none"
             id="path344" /><path
             d="m 327,80 h 27 v 3 h -27 z"
             style="fill:#000000;fill-opacity:1;fill-rule:nonzero;stroke:none"
             id="path346" /><path
             d="m 327,103 h 24 v 1 h -24 z"
             style="fill:#000000;fill-opacity:1;fill-rule:nonzero;stroke:none"
             id="path348" /><path
             d="m 351,83 h 3 v 21 h -3 z"
             style="fill:#000000;fill-opacity:1;fill-rule:nonzero;stroke:none"
             id="path350" /><path
             d="m 303,80 h 25 v 3 h -25 z"
             style="fill:#000000;fill-opacity:1;fill-rule:nonzero;stroke:none"
             id="path352" /><path
             d="m 303,103 h 25 v 1 h -25 z"
             style="fill:#000000;fill-opacity:1;fill-rule:nonzero;stroke:none"
             id="path354" /><path
             d="m 327,83 h 1 v 21 h -1 z"
             style="fill:#000000;fill-opacity:1;fill-rule:nonzero;stroke:none"
             id="path356" /><path
             d="m 277,80 h 27 v 3 h -27 z"
             style="fill:#000000;fill-opacity:1;fill-rule:nonzero;stroke:none"
             id="path358" /><path
             d="m 280,103 h 24 v 1 h -24 z"
             style="fill:#000000;fill-opacity:1;fill-rule:nonzero;stroke:none"
             id="path360" /><path
             d="m 303,83 h 1 v 21 h -1 z"
             style="fill:#000000;fill-opacity:1;fill-rule:nonzero;stroke:none"
             id="path362" /><path
             d="m 253,80 h 27 v 3 h -27 z"
             style="fill:#000000;fill-opacity:1;fill-rule:nonzero;stroke:none"
             id="path364" /><path
             d="m 253,103 h 24 v 1 h -24 z"
             style="fill:#000000;fill-opacity:1;fill-rule:nonzero;stroke:none"
             id="path366" /><path
             d="m 277,83 h 3 v 21 h -3 z"
             style="fill:#000000;fill-opacity:1;fill-rule:nonzero;stroke:none"
             id="path368" /><path
             d="m 230,80 h 24 v 3 h -24 z"
             style="fill:#000000;fill-opacity:1;fill-rule:nonzero;stroke:none"
             id="path370" /><path
             d="m 230,103 h 24 v 1 h -24 z"
             style="fill:#000000;fill-opacity:1;fill-rule:nonzero;stroke:none"
             id="path372" /><path
             d="m 253,83 h 1 v 21 h -1 z"
             style="fill:#000000;fill-opacity:1;fill-rule:nonzero;stroke:none"
             id="path374" /><path
             d="m 204,80 h 27 v 3 h -27 z"
             style="fill:#000000;fill-opacity:1;fill-rule:nonzero;stroke:none"
             id="path376" /><path
             d="m 207,103 h 24 v 1 h -24 z"
             style="fill:#000000;fill-opacity:1;fill-rule:nonzero;stroke:none"
             id="path378" /><path
             d="m 204,80 h 3 v 24 h -3 z"
             style="fill:#000000;fill-opacity:1;fill-rule:nonzero;stroke:none"
             id="path380" /><path
             d="m 230,83 h 1 v 21 h -1 z"
             style="fill:#000000;fill-opacity:1;fill-rule:nonzero;stroke:none"
             id="path382" /><text
             transform="translate(310.5,98)"
             style="font-variant:normal;font-weight:normal;font-size:16px;font-family:ArialMT;-inkscape-font-specification:ArialMT;writing-mode:lr-tb;fill:#000000;fill-opacity:1;fill-rule:nonzero;stroke:none"
             id="text386"><tspan
               x="0"
               y="0"
               id="tspan384">4</tspan></text><text
             transform="translate(334.5,98)"
             style="font-variant:normal;font-weight:normal;font-size:16px;font-family:ArialMT;-inkscape-font-specification:ArialMT;writing-mode:lr-tb;fill:#000000;fill-opacity:1;fill-rule:nonzero;stroke:none"
             id="text390"><tspan
               x="0"
               y="0"
               id="tspan388">2</tspan></text><text
             transform="translate(409,98)"
             style="font-variant:normal;font-weight:normal;font-size:16px;font-family:ArialMT;-inkscape-font-specification:ArialMT;writing-mode:lr-tb;fill:#000000;fill-opacity:1;fill-rule:nonzero;stroke:none"
             id="text394"><tspan
               x="0"
               y="0"
               id="tspan392">9</tspan></text><text
             transform="translate(237,119)"
             style="font-variant:normal;font-weight:normal;font-size:16px;font-family:ArialMT;-inkscape-font-specification:ArialMT;writing-mode:lr-tb;fill:#000000;fill-opacity:1;fill-rule:nonzero;stroke:none"
             id="text398"><tspan
               x="0"
               y="0"
               id="tspan396">4</tspan></text><text
             transform="translate(260.5,119)"
             style="font-variant:normal;font-weight:normal;font-size:16px;font-family:ArialMT;-inkscape-font-specification:ArialMT;writing-mode:lr-tb;fill:#000000;fill-opacity:1;fill-rule:nonzero;stroke:none"
             id="text402"><tspan
               x="0"
               y="0"
               id="tspan400">7</tspan></text><text
             transform="translate(360.5,119)"
             style="font-variant:normal;font-weight:normal;font-size:16px;font-family:ArialMT;-inkscape-font-specification:ArialMT;writing-mode:lr-tb;fill:#000000;fill-opacity:1;fill-rule:nonzero;stroke:none"
             id="text406"><tspan
               x="0"
               y="0"
               id="tspan404">2</tspan></text><text
             transform="translate(384.5,119)"
             style="font-variant:normal;font-weight:normal;font-size:16px;font-family:ArialMT;-inkscape-font-specification:ArialMT;writing-mode:lr-tb;fill:#000000;fill-opacity:1;fill-rule:nonzero;stroke:none"
             id="text410"><tspan
               x="0"
               y="0"
               id="tspan408">6</tspan></text><text
             transform="translate(237,141)"
             style="font-variant:normal;font-weight:normal;font-size:16px;font-family:ArialMT;-inkscape-font-specification:ArialMT;writing-mode:lr-tb;fill:#000000;fill-opacity:1;fill-rule:nonzero;stroke:none"
             id="text414"><tspan
               x="0"
               y="0"
               id="tspan412">6</tspan></text><text
             transform="translate(286.5,141)"
             style="font-variant:normal;font-weight:normal;font-size:16px;font-family:ArialMT;-inkscape-font-specification:ArialMT;writing-mode:lr-tb;fill:#000000;fill-opacity:1;fill-rule:nonzero;stroke:none"
             id="text418"><tspan
               x="0"
               y="0"
               id="tspan416">9</tspan></text><text
             transform="translate(310.5,141)"
             style="font-variant:normal;font-weight:normal;font-size:16px;font-family:ArialMT;-inkscape-font-specification:ArialMT;writing-mode:lr-tb;fill:#000000;fill-opacity:1;fill-rule:nonzero;stroke:none"
             id="text422"><tspan
               x="0"
               y="0"
               id="tspan420">7</tspan></text><text
             transform="translate(384.5,141)"
             style="font-variant:normal;font-weight:normal;font-size:16px;font-family:ArialMT;-inkscape-font-specification:ArialMT;writing-mode:lr-tb;fill:#000000;fill-opacity:1;fill-rule:nonzero;stroke:none"
             id="text426"><tspan
               x="0"
               y="0"
               id="tspan424">5</tspan></text><text
             transform="translate(213.5,164)"
             style="font-variant:normal;font-weight:normal;font-size:16px;font-family:ArialMT;-inkscape-font-specification:ArialMT;writing-mode:lr-tb;fill:#000000;fill-opacity:1;fill-rule:nonzero;stroke:none"
             id="text430"><tspan
               x="0"
               y="0"
               id="tspan428">3</tspan></text><text
             transform="translate(334.5,164)"
             style="font-variant:normal;font-weight:normal;font-size:16px;font-family:ArialMT;-inkscape-font-specification:ArialMT;writing-mode:lr-tb;fill:#000000;fill-opacity:1;fill-rule:nonzero;stroke:none"
             id="text434"><tspan
               x="0"
               y="0"
               id="tspan432">7</tspan></text><text
             transform="translate(260.5,185)"
             style="font-variant:normal;font-weight:normal;font-size:16px;font-family:ArialMT;-inkscape-font-specification:ArialMT;writing-mode:lr-tb;fill:#000000;fill-opacity:1;fill-rule:nonzero;stroke:none"
             id="text438"><tspan
               x="0"
               y="0"
               id="tspan436">8</tspan></text><text
             transform="translate(286.5,185)"
             style="font-variant:normal;font-weight:normal;font-size:16px;font-family:ArialMT;-inkscape-font-specification:ArialMT;writing-mode:lr-tb;fill:#000000;fill-opacity:1;fill-rule:nonzero;stroke:none"
             id="text442"><tspan
               x="0"
               y="0"
               id="tspan440">4</tspan></text><text
             transform="translate(360.5,185)"
             style="font-variant:normal;font-weight:normal;font-size:16px;font-family:ArialMT;-inkscape-font-specification:ArialMT;writing-mode:lr-tb;fill:#000000;fill-opacity:1;fill-rule:nonzero;stroke:none"
             id="text446"><tspan
               x="0"
               y="0"
               id="tspan444">7</tspan></text><text
             transform="translate(409,185)"
             style="font-variant:normal;font-weight:normal;font-size:16px;font-family:ArialMT;-inkscape-font-specification:ArialMT;writing-mode:lr-tb;fill:#000000;fill-opacity:1;fill-rule:nonzero;stroke:none"
             id="text450"><tspan
               x="0"
               y="0"
               id="tspan448">2</tspan></text><text
             transform="translate(286.5,207)"
             style="font-variant:normal;font-weight:normal;font-size:16px;font-family:ArialMT;-inkscape-font-specification:ArialMT;writing-mode:lr-tb;fill:#000000;fill-opacity:1;fill-rule:nonzero;stroke:none"
             id="text454"><tspan
               x="0"
               y="0"
               id="tspan452">5</tspan></text><text
             transform="translate(260.5,230)"
             style="font-variant:normal;font-weight:normal;font-size:16px;font-family:ArialMT;-inkscape-font-specification:ArialMT;writing-mode:lr-tb;fill:#000000;fill-opacity:1;fill-rule:nonzero;stroke:none"
             id="text458"><tspan
               x="0"
               y="0"
               id="tspan456">9</tspan></text><text
             transform="translate(286.5,230)"
             style="font-variant:normal;font-weight:normal;font-size:16px;font-family:ArialMT;-inkscape-font-specification:ArialMT;writing-mode:lr-tb;fill:#000000;fill-opacity:1;fill-rule:nonzero;stroke:none"
             id="text462"><tspan
               x="0"
               y="0"
               id="tspan460">2</tspan></text><text
             transform="translate(384.5,230)"
             style="font-variant:normal;font-weight:normal;font-size:16px;font-family:ArialMT;-inkscape-font-specification:ArialMT;writing-mode:lr-tb;fill:#000000;fill-opacity:1;fill-rule:nonzero;stroke:none"
             id="text466"><tspan
               x="0"
               y="0"
               id="tspan464">3</tspan></text><text
             transform="translate(409,230)"
             style="font-variant:normal;font-weight:normal;font-size:16px;font-family:ArialMT;-inkscape-font-specification:ArialMT;writing-mode:lr-tb;fill:#000000;fill-opacity:1;fill-rule:nonzero;stroke:none"
             id="text470"><tspan
               x="0"
               y="0"
               id="tspan468">7</tspan></text><text
             transform="translate(213.5,251)"
             style="font-variant:normal;font-weight:normal;font-size:16px;font-family:ArialMT;-inkscape-font-specification:ArialMT;writing-mode:lr-tb;fill:#000000;fill-opacity:1;fill-rule:nonzero;stroke:none"
             id="text474"><tspan
               x="0"
               y="0"
               id="tspan472">6</tspan></text><text
             transform="translate(213.5,273)"
             style="font-variant:normal;font-weight:normal;font-size:16px;font-family:ArialMT;-inkscape-font-specification:ArialMT;writing-mode:lr-tb;fill:#000000;fill-opacity:1;fill-rule:nonzero;stroke:none"
             id="text478"><tspan
               x="0"
               y="0"
               id="tspan476">5</tspan></text><text
             transform="translate(237,273)"
             style="font-variant:normal;font-weight:normal;font-size:16px;font-family:ArialMT;-inkscape-font-specification:ArialMT;writing-mode:lr-tb;fill:#000000;fill-opacity:1;fill-rule:nonzero;stroke:none"
             id="text482"><tspan
               x="0"
               y="0"
               id="tspan480">7</tspan></text><text
             transform="translate(310.5,273)"
             style="font-variant:normal;font-weight:normal;font-size:16px;font-family:ArialMT;-inkscape-font-specification:ArialMT;writing-mode:lr-tb;fill:#000000;fill-opacity:1;fill-rule:nonzero;stroke:none"
             id="text486"><tspan
               x="0"
               y="0"
               id="tspan484">6</tspan></text><text
             transform="translate(334.5,273)"
             style="font-variant:normal;font-weight:normal;font-size:16px;font-family:ArialMT;-inkscape-font-specification:ArialMT;writing-mode:lr-tb;fill:#000000;fill-opacity:1;fill-rule:nonzero;stroke:none"
             id="text490"><tspan
               x="0"
               y="0"
               id="tspan488">8</tspan></text><text
             transform="translate(384.5,273)"
             style="font-variant:normal;font-weight:normal;font-size:16px;font-family:ArialMT;-inkscape-font-specification:ArialMT;writing-mode:lr-tb;fill:#000000;fill-opacity:1;fill-rule:nonzero;stroke:none"
             id="text494"><tspan
               x="0"
               y="0"
               id="tspan492">2</tspan></text><text
             transform="translate(409,273)"
             style="font-variant:normal;font-weight:normal;font-size:16px;font-family:ArialMT;-inkscape-font-specification:ArialMT;writing-mode:lr-tb;fill:#000000;fill-opacity:1;fill-rule:nonzero;stroke:none"
             id="text498"><tspan
               x="0"
               y="0"
               id="tspan496">4</tspan></text></g></g></g></g></svg>
